<?xml version="1.0" encoding="UTF-8" standalone="no"?>
<!DOCTYPE svg PUBLIC "-//W3C//DTD SVG 1.1//EN" "http://www.w3.org/Graphics/SVG/1.1/DTD/svg11.dtd">
<svg width="100%" height="100%" viewBox="0 0 256 256" version="1.1" xmlns="http://www.w3.org/2000/svg" xmlns:xlink="http://www.w3.org/1999/xlink" xml:space="preserve" xmlns:serif="http://www.serif.com/" style="fill-rule:evenodd;clip-rule:evenodd;stroke-linejoin:round;stroke-miterlimit:2;">
    <g transform="matrix(1.05827,0,0,1.05827,-7.45898,-7.45898)">
        <circle cx="128" cy="128" r="116.802" style="fill:rgb(3,45,57);"/>
    </g>
    <g transform="matrix(0.106843,0,0,0.106843,5.89363,-34.8082)">
        <g transform="matrix(9.35952,0,0,9.35952,-55.1615,325.788)">
            <rect x="101.71" y="165.861" width="52.58" height="15.081" style="fill:rgb(181,69,65);"/>
        </g>
        <g transform="matrix(9.35952,0,0,9.35952,-55.1615,325.788)">
            <path d="M88.312,68.466C95.977,44.131 109.234,28.726 129.023,23.755C145.825,30.563 158.613,45.33 167.875,67.093L168.184,165.861L85.036,164.835L88.312,68.466Z" style="fill:white;"/>
        </g>
        <g transform="matrix(8.27399,0,0,8.27399,83.7859,473.949)">
            <ellipse cx="128" cy="74.383" rx="29.739" ry="29.226" style="fill:rgb(17,178,230);"/>
        </g>
        <path id="color_x5F_1" d="M1402.38,1087.7C1402.38,944.587 1285.95,828.152 1142.85,828.152C999.749,828.152 883.322,944.587 883.322,1087.7C883.322,1230.79 999.749,1347.2 1142.85,1347.2C1285.95,1347.2 1402.38,1230.79 1402.38,1087.7ZM1142.85,895.261C1248.94,895.261 1335.26,981.585 1335.26,1087.7C1335.26,1193.78 1248.94,1280.09 1142.85,1280.09C1036.76,1280.09 950.45,1193.78 950.45,1087.7C950.45,981.585 1036.76,895.261 1142.85,895.261ZM926.282,2313.59L993.41,2313.59L993.41,2389.84L926.282,2389.84L926.282,2313.59ZM1304.59,2230.17L1371.71,2230.17L1371.71,2306.41L1304.59,2306.41L1304.59,2230.17ZM1182.13,2467.54L1249.24,2467.54L1249.24,2537.36L1182.13,2537.36L1182.13,2467.54ZM1805.95,1784.37L1547.84,1394.35L1547.84,1079.85C1547.84,895.794 1474.56,744.968 1302.83,575.528C1260.17,533.432 1203.35,510.248 1142.85,510.248C1082.36,510.248 1025.54,533.432 982.869,575.528C811.147,744.971 737.874,895.794 737.874,1079.85L737.874,1394.34L479.756,1784.36C461.886,1811.35 460.309,1845.84 475.642,1874.37C490.96,1902.87 520.59,1920.59 552.971,1920.59L834.145,1920.59L834.145,2070.91L926.286,2070.91L926.286,2261.52L993.413,2261.52L993.413,2070.91L1051.71,2070.91L1051.71,2473.23L1118.82,2473.23L1118.82,2070.91L1182.13,2070.91L1182.13,2412.29L1249.24,2412.29L1249.24,2070.91L1304.59,2070.91L1304.59,2165.31L1371.71,2165.31L1371.71,2070.91L1451.55,2070.91L1451.55,1920.59L1732.74,1920.59C1765.11,1920.59 1794.74,1902.88 1810.07,1874.37C1825.41,1845.84 1823.83,1811.35 1805.95,1784.37ZM1384.43,1920.59L1384.43,2003.8L901.276,2003.8L901.276,1920.59L1384.43,1920.59ZM1480.72,1626.21L1480.72,1853.49L804.998,1853.49L804.998,1626.22L917.413,1626.22L917.413,1559.11L804.998,1559.11L804.998,1079.85C804.998,913.276 870.19,781.01 1030.02,623.299C1060.1,593.623 1100.17,577.284 1142.85,577.284C1185.54,577.284 1225.61,593.627 1255.7,623.299C1415.52,781.021 1480.72,913.295 1480.72,1079.85L1480.72,1559.1L1008.34,1559.1L1008.34,1626.21L1480.72,1626.21Z" style="fill:rgb(238,94,83);fill-rule:nonzero;"/>
        <clipPath id="_clip1">
            <path id="color_x5F_11" serif:id="color_x5F_1" d="M1402.38,1087.7C1402.38,944.587 1285.95,828.152 1142.85,828.152C999.749,828.152 883.322,944.587 883.322,1087.7C883.322,1230.79 999.749,1347.2 1142.85,1347.2C1285.95,1347.2 1402.38,1230.79 1402.38,1087.7ZM1142.85,895.261C1248.94,895.261 1335.26,981.585 1335.26,1087.7C1335.26,1193.78 1248.94,1280.09 1142.85,1280.09C1036.76,1280.09 950.45,1193.78 950.45,1087.7C950.45,981.585 1036.76,895.261 1142.85,895.261ZM926.282,2313.59L993.41,2313.59L993.41,2389.84L926.282,2389.84L926.282,2313.59ZM1304.59,2230.17L1371.71,2230.17L1371.71,2306.41L1304.59,2306.41L1304.59,2230.17ZM1182.13,2467.54L1249.24,2467.54L1249.24,2537.36L1182.13,2537.36L1182.13,2467.54ZM1805.95,1784.37L1547.84,1394.35L1547.84,1079.85C1547.84,895.794 1474.56,744.968 1302.83,575.528C1260.17,533.432 1203.35,510.248 1142.85,510.248C1082.36,510.248 1025.54,533.432 982.869,575.528C811.147,744.971 737.874,895.794 737.874,1079.85L737.874,1394.34L479.756,1784.36C461.886,1811.35 460.309,1845.84 475.642,1874.37C490.96,1902.87 520.59,1920.59 552.971,1920.59L834.145,1920.59L834.145,2070.91L926.286,2070.91L926.286,2261.52L993.413,2261.52L993.413,2070.91L1051.71,2070.91L1051.71,2473.23L1118.82,2473.23L1118.82,2070.91L1182.13,2070.91L1182.13,2412.29L1249.24,2412.29L1249.24,2070.91L1304.59,2070.91L1304.59,2165.31L1371.71,2165.31L1371.71,2070.91L1451.55,2070.91L1451.55,1920.59L1732.74,1920.59C1765.11,1920.59 1794.74,1902.88 1810.07,1874.37C1825.41,1845.84 1823.83,1811.35 1805.95,1784.37ZM1384.43,1920.59L1384.43,2003.8L901.276,2003.8L901.276,1920.59L1384.43,1920.59ZM1480.72,1626.21L1480.72,1853.49L804.998,1853.49L804.998,1626.22L917.413,1626.22L917.413,1559.11L804.998,1559.11L804.998,1079.85C804.998,913.276 870.19,781.01 1030.02,623.299C1060.1,593.623 1100.17,577.284 1142.85,577.284C1185.54,577.284 1225.61,593.627 1255.7,623.299C1415.52,781.021 1480.72,913.295 1480.72,1079.85L1480.72,1559.1L1008.34,1559.1L1008.34,1626.21L1480.72,1626.21Z" clip-rule="nonzero"/>
        </clipPath>
        <g clip-path="url(#_clip1)">
            <g transform="matrix(8.27399,0,0,7.58596,83.7859,637.087)">
                <rect x="46.093" y="188.995" width="156.501" height="61.504" style="fill:rgb(252,182,35);"/>
            </g>
        </g>
    </g>
</svg>
